<svg version="1.1" id="Layer_1" xmlns="http://www.w3.org/2000/svg" xmlns:xlink="http://www.w3.org/1999/xlink" x="0px" y="0px"
	 width="100%" viewBox="0 0 1280 1280" enable-background="new 0 0 1280 1280" xml:space="preserve">
<path fill="#000000" opacity="1.000000" stroke="none" 
	d="
M811.000000,1281.000000 
	C540.666687,1281.000000 270.833344,1281.000000 1.000000,1281.000000 
	C1.000000,854.333313 1.000000,427.666656 1.000000,1.000000 
	C427.666656,1.000000 854.333313,1.000000 1281.000000,1.000000 
	C1281.000000,427.666656 1281.000000,854.333313 1281.000000,1281.000000 
	C1124.500000,1281.000000 968.000000,1281.000000 811.000000,1281.000000 
M758.087280,429.084076 
	C758.087280,429.084076 758.080200,429.026276 758.567932,428.898224 
	C758.726501,428.614807 758.885071,428.331390 759.067078,428.124939 
	C759.067078,428.124939 759.144531,428.103363 760.057556,427.989380 
	C787.639404,427.994507 815.221375,427.972473 842.802734,428.087006 
	C844.146606,428.092560 845.485535,429.295532 846.235535,430.308472 
	C844.813232,433.043152 843.490417,435.835297 841.950684,438.502197 
	C836.293457,448.300842 830.564270,458.057983 824.283386,468.189575 
	C823.784668,469.430634 823.286011,470.671661 822.365173,472.100372 
	C822.073364,472.309265 821.980347,472.585388 821.781311,473.565582 
	C818.421814,479.344116 815.062378,485.122681 811.275452,491.090515 
	C811.005066,491.309631 810.894775,491.591583 810.881104,491.874969 
	C810.881104,491.874969 810.819641,491.938324 810.255920,492.192108 
	C810.150085,492.778687 810.044250,493.365265 809.887573,493.887421 
	C809.887573,493.887421 809.823059,493.938171 809.257996,494.191101 
	C809.151428,494.778717 809.044861,495.366333 808.997559,495.987213 
	C808.997559,495.987213 808.937134,495.946167 808.422913,496.039429 
	C808.295654,496.337952 808.168396,496.636444 807.920044,497.400757 
	C807.920044,497.400757 807.779968,497.861206 807.172424,498.175964 
	C801.043884,508.924988 794.915344,519.674011 788.702820,530.570312 
	C808.223328,541.886658 827.383301,552.993958 847.150085,564.453064 
	C851.248169,556.997192 855.089050,550.009277 859.230530,542.385864 
	C864.509583,533.308289 869.788635,524.230713 875.676270,514.790283 
	C878.240051,510.251617 880.882874,505.755341 883.346252,501.162872 
	C886.023438,496.171783 888.533813,491.091217 891.846497,485.966736 
	C917.199585,442.235504 942.552673,398.504272 968.257507,354.166290 
	C945.587158,354.166290 924.300781,354.166290 902.084778,354.023438 
	C881.062439,354.071777 860.040161,354.120117 838.087463,354.027893 
	C826.065796,354.075104 814.044128,354.122345 801.091125,354.031311 
	C792.734314,354.073425 784.377441,354.115540 775.088684,354.027344 
	C762.402832,354.080353 749.716919,354.133362 736.097961,354.057739 
	C730.072571,354.093445 724.047180,354.129181 717.286621,354.073730 
	C712.266357,354.282562 712.150391,358.879486 710.380554,361.914764 
	C702.208435,375.929779 694.125427,389.996765 685.854797,404.427002 
	C685.854797,404.427002 685.703308,404.810547 685.295288,405.046906 
	C685.029236,405.275848 684.926880,405.563354 684.901978,405.917938 
	C684.901978,405.917938 684.910339,406.004211 684.529602,406.184662 
	C684.654175,406.516754 684.778687,406.848846 684.583069,407.757263 
	C681.016541,414.147766 677.450073,420.538239 673.319458,427.309479 
	C671.498108,430.050476 669.530945,432.707001 667.883972,435.549103 
	C663.737610,442.704498 659.735718,449.943573 655.374573,457.719055 
	C653.219910,461.568512 651.012939,465.389893 648.925293,469.275391 
	C646.868164,473.104004 644.931885,476.997528 642.203491,480.954681 
	C641.716736,481.344177 641.054260,481.634125 640.768982,482.137787 
	C633.514038,494.944519 626.315613,507.783264 619.071167,520.596008 
	C612.806213,531.676392 606.496765,542.731750 600.113037,553.963623 
	C609.250977,559.285522 617.495972,564.179749 625.830200,568.916992 
	C635.487976,574.406494 645.224060,579.757996 655.410889,585.635925 
	C659.836548,588.180603 664.243835,590.757874 668.691467,593.263489 
	C678.753784,598.931885 688.836060,604.565002 699.293213,610.775696 
	C709.115173,616.592712 718.937195,622.409729 728.654480,628.164734 
	C725.840820,633.851624 723.341980,638.902283 720.281555,644.334839 
	C719.845947,644.826965 719.309204,645.261108 718.989258,645.819458 
	C705.864014,668.727966 692.733276,691.633362 679.668762,714.576416 
	C676.624756,719.921997 673.814209,725.400452 670.356812,731.157166 
	C666.527344,737.321716 662.541443,743.395996 658.915100,749.677795 
	C655.697449,755.251709 652.879028,761.056091 649.182068,766.955200 
	C644.417114,775.233032 639.652161,783.510803 634.324890,792.119812 
	C633.573242,793.415894 632.821533,794.711975 631.952515,796.380371 
	C631.952515,796.380371 631.879700,796.763855 631.278137,797.130554 
	C627.485046,804.027832 623.691956,810.925110 619.307007,818.176086 
	C617.695251,820.573975 616.083496,822.971924 614.024658,826.035034 
	C610.329956,819.648804 607.062134,813.828003 603.624390,808.109436 
	C600.530334,802.962524 597.249817,797.927612 593.962463,792.150024 
	C586.648865,779.233521 579.283264,766.345642 572.119873,753.346375 
	C571.543274,752.300171 572.035339,750.351379 572.585022,749.057495 
	C574.175293,745.314453 576.048645,741.691589 578.194092,737.438660 
	C581.735107,731.295288 585.276123,725.151855 589.197693,718.426147 
	C594.107361,710.298889 599.016968,702.171631 604.269958,693.434448 
	C608.934021,685.353821 613.598083,677.273193 618.644226,668.877991 
	C618.880005,668.621155 618.994507,668.318420 619.099731,667.543030 
	C619.099731,667.543030 619.247803,667.127441 619.715210,666.641785 
	C623.550720,660.053894 626.952393,653.156128 631.364563,646.980225 
	C634.654175,642.375549 632.966370,640.508545 629.017334,638.296570 
	C618.730103,632.534424 608.526062,626.622314 598.331055,620.697327 
	C589.206360,615.394409 580.138000,609.994690 569.815857,603.913635 
	C569.888977,603.755737 569.442322,604.829468 568.906616,605.856750 
	C567.173157,609.180969 565.502075,612.542847 563.635437,615.791565 
	C557.950989,625.684570 552.187073,635.531982 546.452515,645.396179 
	C543.726379,650.085449 540.970032,654.757507 538.284302,659.469727 
	C537.448059,660.936890 536.798340,662.510315 535.736145,664.587585 
	C532.839050,669.397827 529.942017,674.208069 526.455872,679.099792 
	C526.307922,679.446106 526.159973,679.792480 525.839600,680.449402 
	C525.839600,680.449402 525.706177,680.778748 525.273438,681.084473 
	C525.180725,681.416016 525.088013,681.747620 524.931152,682.672913 
	C524.923218,683.070862 524.915344,683.468872 524.234741,683.924194 
	C520.451660,690.151306 516.668640,696.378418 512.308411,703.019836 
	C510.431519,706.634766 508.554626,710.249695 506.296234,714.073364 
	C506.047943,714.281799 505.948547,714.546448 505.842987,714.861755 
	C505.842987,714.861755 505.837311,715.016785 505.314667,715.114319 
	C505.207642,715.432495 505.100616,715.750610 504.807526,716.455933 
	C504.807526,716.455933 504.626923,716.845703 504.203796,717.111450 
	C504.130859,717.426208 504.057892,717.741028 503.826569,718.450378 
	C503.826569,718.450378 503.668396,718.845093 503.145721,719.286316 
	C499.022919,726.341736 494.698944,733.289612 490.846680,740.489746 
	C488.193390,745.449097 482.126770,750.287354 488.893555,757.006714 
	C489.222473,757.346680 489.551392,757.686646 489.795258,758.034058 
	C489.795258,758.034058 489.801941,758.119141 490.095947,758.754578 
	C492.980713,763.649292 495.812500,768.576599 498.784119,773.418030 
	C499.622162,774.783386 500.869904,775.897278 501.953796,777.874023 
	C504.313080,782.256165 506.672333,786.638306 509.169525,791.699463 
	C510.364471,793.652283 511.590515,795.586792 512.748901,797.561035 
	C517.532837,805.714966 522.296265,813.880859 526.968994,822.663269 
	C527.288208,823.127747 527.607361,823.592224 527.971924,824.058411 
	C527.971924,824.058411 527.937561,824.037109 528.019043,824.535339 
	C528.185181,824.849915 528.440613,825.050903 528.907532,825.554382 
	C528.907532,825.554382 529.052734,825.963013 529.153625,826.663330 
	C537.092957,840.304443 545.035278,853.943787 552.971008,867.587036 
	C565.529846,889.178406 578.069458,910.781189 590.649902,932.359924 
	C594.316162,938.648499 598.093933,944.871887 601.929260,951.571106 
	C601.929260,951.571106 602.060974,952.010864 602.054932,952.523376 
	C602.310608,952.732727 602.566345,952.942017 602.908630,953.861023 
	C605.997131,959.248779 609.085571,964.636536 612.541077,970.664551 
	C616.637451,963.446472 620.357788,957.014648 623.950806,950.512451 
	C626.039246,946.733154 627.923584,942.841003 630.214844,938.381531 
	C634.201782,931.638123 638.188721,924.894714 642.812073,917.853271 
	C647.221191,910.224365 651.630310,902.595459 656.190369,894.552917 
	C656.190369,894.552917 656.371277,894.150146 656.725342,893.996338 
	C656.945618,893.841675 657.086731,893.633301 657.659546,892.840271 
	C658.616394,890.965149 659.523376,889.062561 660.538757,887.219666 
	C664.622314,879.808167 668.739319,872.415222 673.197144,864.407043 
	C680.080872,852.617249 686.964539,840.827393 694.234375,828.451111 
	C701.132690,816.634644 708.031006,804.818176 715.139893,792.329834 
	C722.868408,779.022644 730.607178,765.721436 738.322632,752.406677 
	C746.875610,737.646484 755.423645,722.883423 763.942749,708.103638 
	C770.044678,697.517395 776.095337,686.901611 782.637695,675.759338 
	C787.727783,666.836670 792.817810,657.914001 798.239563,648.374512 
	C800.543823,644.268372 802.848083,640.162231 805.654663,635.597961 
	C808.488831,630.489624 811.323059,625.381226 814.733521,619.872375 
	C818.868042,612.834045 823.002563,605.795715 827.218567,598.618652 
	C825.037415,597.073730 823.644226,595.909546 822.094482,595.017090 
	C808.650085,587.273987 795.182983,579.570251 781.711914,571.873535 
	C767.810852,563.931213 753.897705,556.009888 739.404114,547.713379 
	C729.625122,542.086975 719.846130,536.460632 709.611389,530.343567 
	C707.397461,527.980591 701.967712,528.539795 703.669678,522.784546 
	C708.408508,514.518127 713.147278,506.251740 718.239868,497.385162 
	C722.173157,490.296387 726.106445,483.207611 730.636902,475.760101 
	C739.536682,460.508118 748.436462,445.256134 757.707275,429.823792 
	C757.938110,429.627838 758.045593,429.378448 758.087280,429.084076 
M468.940521,468.982300 
	C468.940521,468.982300 468.983337,469.071777 469.421021,468.742218 
	C469.579742,468.231110 469.738464,467.720001 470.019592,466.658142 
	C470.028259,466.470306 470.036926,466.282440 470.498322,465.685669 
	C470.673462,465.102020 470.848602,464.518402 470.935394,463.984680 
	C470.935394,463.984680 470.985229,464.073090 471.414429,463.743347 
	C471.571350,463.239380 471.728271,462.735443 472.275818,461.591675 
	C472.457489,461.314423 472.688110,461.057648 472.813812,460.756989 
	C479.893555,443.823639 487.030975,426.913574 493.923187,409.904144 
	C494.544250,408.371490 494.102051,405.906677 493.257385,404.366150 
	C489.055817,396.703583 484.554047,389.205627 480.128571,381.379852 
	C480.128571,381.379852 480.072113,381.114319 479.899414,380.607300 
	C479.618835,380.404633 479.338287,380.201965 479.079712,379.951843 
	C479.079712,379.951843 479.027771,379.946167 479.014984,379.362488 
	C478.700256,378.910980 478.385529,378.459473 478.068390,377.937500 
	C478.068390,377.937500 477.997955,377.940186 477.832581,377.413025 
	C477.578064,377.146881 477.323578,376.880737 476.989868,375.940308 
	C473.857574,370.282837 470.565613,364.706116 467.648224,358.939911 
	C465.651978,354.994232 462.817566,353.637512 458.482269,353.938629 
	C453.011810,354.318634 447.501556,354.126160 441.072296,354.112701 
	C420.097809,354.112701 399.123291,354.112701 376.992889,354.112701 
	C385.535370,368.870911 393.269928,382.225189 400.996307,395.584229 
	C407.655304,407.097717 414.286163,418.627533 420.970673,430.126160 
	C422.865234,433.385101 422.977081,435.438568 418.426331,436.322388 
	C410.765167,437.810394 403.242676,440.038361 395.560913,441.375122 
	C393.730286,441.693634 390.829529,440.257385 389.586456,438.698730 
	C386.402740,434.706909 383.874725,430.192108 380.915161,425.201050 
	C367.921661,402.411072 355.000519,379.578918 341.782104,356.920105 
	C340.837311,355.300568 337.721466,354.150940 335.604187,354.133820 
	C311.308319,353.937195 287.010345,353.994507 262.712982,354.016327 
	C261.136261,354.017731 259.559845,354.282471 256.846771,354.527222 
	C278.521393,391.938599 299.697815,428.489990 321.072113,465.717804 
	C330.657013,482.182678 340.241913,498.647552 350.002350,515.798218 
	C353.884827,522.559570 357.767273,529.320984 361.903473,536.754395 
	C367.529083,546.218567 373.154694,555.682739 378.925049,565.841614 
	C384.208160,574.958923 389.491272,584.076172 394.916626,593.188538 
	C394.916626,593.188538 394.976196,593.061218 394.972565,593.645386 
	C395.288818,594.089294 395.605072,594.533264 395.918945,595.071106 
	C395.918945,595.071106 396.012878,595.073608 396.175018,595.581116 
	C396.429535,595.826416 396.684021,596.071777 397.290710,596.878906 
	C399.164581,600.245300 401.038422,603.611694 402.935516,607.578796 
	C403.259033,608.038269 403.582581,608.497681 403.893158,609.083313 
	C403.893158,609.083313 404.019318,609.096436 404.136292,609.551758 
	C404.318176,609.844055 404.581238,609.993225 404.786316,610.053955 
	C404.786316,610.053955 404.792542,610.203308 404.891541,610.905579 
	C408.916107,617.604004 412.940674,624.302368 416.953217,631.604675 
	C417.269958,632.059021 417.586700,632.513428 417.880646,633.066528 
	C417.880646,633.066528 417.979401,633.089478 417.923828,633.674133 
	C418.242493,634.102234 418.561127,634.530273 418.788605,634.981934 
	C418.788605,634.981934 418.811737,635.073242 419.044189,635.733826 
	C423.365417,643.209656 427.686646,650.685486 432.044617,658.555115 
	C432.173065,658.824646 432.386322,658.951355 432.729767,659.160217 
	C432.729767,659.160217 432.947479,659.232605 432.882812,659.675171 
	C433.056488,659.992981 433.230133,660.310791 433.655090,661.094055 
	C433.805450,661.186157 433.955780,661.278320 434.285553,661.974182 
	C438.525330,669.227051 442.765137,676.479919 447.033661,684.484375 
	C453.529449,695.507324 459.992981,706.549500 466.532898,717.546265 
	C470.599304,724.383911 471.207275,724.518555 477.405182,720.063477 
	C478.415833,719.337036 479.139984,718.115234 479.790619,717.002075 
	C482.023590,713.181580 484.203094,709.328491 486.333771,705.449768 
	C491.315369,696.381042 496.256744,687.290161 501.812103,677.864075 
	C505.544373,671.482605 509.378723,665.156860 512.918518,658.670349 
	C513.587341,657.444702 513.646362,655.289856 513.013977,654.066711 
	C511.365509,650.878601 509.177094,647.969666 507.005249,644.255066 
	C500.740021,633.045898 494.474823,621.836670 487.785309,610.112366 
	C487.183716,609.147888 486.554718,608.199341 485.984833,607.216492 
	C481.063049,598.727966 476.151917,590.233215 471.122253,581.361389 
	C471.122253,581.361389 471.002441,580.983704 470.774963,580.506531 
	C470.541473,580.241760 470.307983,579.976990 469.761353,579.124207 
	C465.933777,572.703796 462.106201,566.283447 458.209686,559.128540 
	C454.503357,552.505981 450.797028,545.883423 447.871796,539.027100 
	C457.235016,536.859436 466.581421,534.613220 475.977966,532.601379 
	C477.542480,532.266418 479.325409,532.951843 481.244934,533.635681 
	C481.764099,534.102722 482.283264,534.569763 482.909332,535.506287 
	C482.909332,535.506287 483.013428,535.976440 483.050873,536.548645 
	C483.239410,537.082397 483.427979,537.616150 483.797302,538.829041 
	C489.832092,548.869568 495.866852,558.910095 501.902405,569.629822 
	C502.202881,570.213196 502.503357,570.796631 502.851166,571.688538 
	C502.851166,571.688538 502.924438,571.991943 503.147797,572.542542 
	C503.745117,573.037048 504.342438,573.531616 504.836151,574.065369 
	C504.836151,574.065369 504.817200,574.174561 505.184296,574.748291 
	C514.303711,590.743469 523.423157,606.738647 533.277893,624.023499 
	C536.228638,618.837097 538.298584,615.137878 540.425049,611.471436 
	C551.825562,591.814209 563.341125,572.222107 574.491821,552.424377 
	C575.593079,550.469116 575.297363,546.886108 574.260376,544.725647 
	C571.192688,538.334412 567.539673,532.211243 563.902588,526.110229 
	C560.796875,520.900391 557.396545,515.866150 554.068298,510.058624 
	C552.249268,506.541504 550.518311,502.974121 548.558289,499.537445 
	C547.958618,498.485962 546.856201,497.287384 545.769348,497.016022 
	C536.915955,494.805634 528.011597,492.799286 518.518188,490.304352 
	C506.330292,486.886993 494.142365,483.469635 481.498291,480.022522 
	C481.498291,480.022522 481.041595,480.043732 480.352783,480.052612 
	C479.894867,480.087769 479.436920,480.122955 478.561829,479.758636 
	C478.329834,479.451416 478.097839,479.144226 477.417999,478.312134 
	C474.694305,477.585449 471.970642,476.858734 468.669586,475.995178 
	C468.472351,475.980408 468.275085,475.965637 467.751434,475.389771 
	C467.847351,473.906525 467.943268,472.423279 467.945526,470.979523 
	C467.945526,470.979523 467.984894,471.073212 468.470856,470.692139 
	C468.657257,470.107910 468.843658,469.523682 468.940521,468.982300 
M659.808716,389.114227 
	C662.530273,383.697083 665.251831,378.279938 668.215576,372.118713 
	C671.301880,366.453247 674.388184,360.787750 677.979919,354.194458 
	C663.593323,354.194458 650.821350,354.194458 637.110046,354.099762 
	C629.074036,354.123962 621.038025,354.148193 612.067078,354.099060 
	C604.373596,354.123810 596.680054,354.148529 588.053040,354.107513 
	C572.702881,354.139069 557.352722,354.170624 541.066528,354.124939 
	C526.523071,354.260803 511.979645,354.396637 496.833374,354.362030 
	C496.422516,354.887299 495.541412,355.648956 495.669312,355.903381 
	C499.135559,362.799194 502.580780,369.711029 506.282410,376.481964 
	C514.693787,391.867828 523.370911,407.109344 531.695374,422.541534 
	C540.716980,439.266266 549.429749,456.157501 558.394409,472.913422 
	C559.006836,474.058105 560.599731,474.678223 561.899109,476.310486 
	C564.553650,481.529602 567.208191,486.748718 569.876770,492.702240 
	C574.456604,500.694458 578.971313,508.725250 583.668274,516.648010 
	C584.671143,518.339722 586.335693,519.639099 587.695435,521.119202 
	C588.802124,519.270142 589.908813,517.421082 591.756409,515.403687 
	C593.879150,512.361023 596.316772,509.488464 598.068359,506.245392 
	C604.569519,494.208405 610.794006,482.022369 617.225464,469.947235 
	C620.671387,463.477386 624.448914,457.183380 627.862488,450.697235 
	C633.917847,439.191589 639.761841,427.574799 645.786926,416.053009 
	C649.940186,408.110687 654.280701,400.266357 658.448730,392.331573 
	C658.948853,391.379456 658.891602,390.134430 659.030945,389.033539 
	C659.030945,389.033539 659.060608,389.088348 659.808716,389.114227 
z"/>
<path fill="#DB0904" opacity="1.000000" stroke="none" 
	d="
M903.014404,354.166290 
	C924.300781,354.166290 945.587158,354.166290 968.257507,354.166290 
	C942.552673,398.504272 917.199585,442.235504 891.127441,485.908997 
	C889.331299,485.426453 888.219482,485.072815 887.182373,484.566193 
	C867.367188,474.886444 855.843018,458.780060 850.590515,437.681274 
	C849.912476,434.957611 848.108887,432.514160 846.826721,429.940918 
	C845.485535,429.295532 844.146606,428.092560 842.802734,428.087006 
	C815.221375,427.972473 787.639404,427.994507 759.590576,427.762024 
	C759.131042,427.345337 759.138489,427.155945 759.597778,427.000305 
	C767.697144,426.995056 775.344543,426.956085 783.460327,426.947601 
	C793.619202,426.966400 803.309814,426.954773 813.468872,426.956360 
	C822.756836,426.974487 831.579956,426.830994 840.394348,427.045502 
	C844.941833,427.156219 846.687805,425.597290 847.219116,420.844421 
	C850.823669,388.602814 867.431824,366.649506 898.882141,356.710693 
	C900.378235,356.237915 901.642273,355.031219 903.014404,354.166290 
z"/>
<path fill="#131644" opacity="1.000000" stroke="none" 
	d="
M349.826782,515.112427 
	C340.241913,498.647552 330.657013,482.182678 321.320892,465.261536 
	C327.196747,462.822601 332.798523,460.763733 338.459900,458.884399 
	C342.191010,457.645813 345.384308,455.839142 345.340729,451.457458 
	C345.302185,447.581146 347.503998,446.172302 350.652679,445.375092 
	C355.486359,444.151337 360.522034,443.443481 365.101410,441.597473 
	C368.111725,440.384003 371.704224,438.064087 372.837189,435.328827 
	C374.636383,430.985291 377.316406,428.145447 381.084534,425.886444 
	C383.874725,430.192108 386.402740,434.706909 389.586456,438.698730 
	C390.829529,440.257385 393.730286,441.693634 395.560913,441.375122 
	C403.242676,440.038361 410.765167,437.810394 418.426331,436.322388 
	C422.977081,435.438568 422.865234,433.385101 420.970673,430.126160 
	C414.286163,418.627533 407.655304,407.097717 400.996307,395.584229 
	C393.269928,382.225189 385.535370,368.870911 376.992889,354.112701 
	C399.123291,354.112701 420.097809,354.112701 441.632812,354.504425 
	C442.961548,358.939453 444.248383,362.968811 444.357849,367.029877 
	C444.476624,371.435883 443.259338,375.860352 443.054230,380.296631 
	C442.717896,387.570587 443.301453,394.926422 442.474121,402.130219 
	C440.727325,417.340363 437.498383,432.228851 429.886078,445.808563 
	C425.051666,454.432739 421.209595,463.578735 413.071899,470.100311 
	C407.171783,474.828705 402.198151,480.707947 396.740906,486.001343 
	C396.110626,486.612701 394.903748,487.234680 394.175629,487.044037 
	C388.520691,485.563690 387.009827,488.846436 386.622162,493.421478 
	C386.235870,497.980560 384.131805,500.295013 379.265808,500.181458 
	C377.428802,500.138550 375.450531,501.161865 373.729767,502.066467 
	C368.772003,504.672852 363.921509,507.482422 359.011536,510.180725 
	C355.966217,511.854279 352.889435,513.470459 349.826782,515.112427 
z"/>
<path fill="#520504" opacity="1.000000" stroke="none" 
	d="
M782.168884,676.299011 
	C776.095337,686.901611 770.044678,697.517395 763.942749,708.103638 
	C755.423645,722.883423 746.875610,737.646484 738.322632,752.406677 
	C730.607178,765.721436 722.868408,779.022644 714.676941,792.623718 
	C712.644409,791.823669 710.430237,791.079895 709.613831,789.576904 
	C705.493896,781.991882 701.542175,774.300354 697.897461,766.475708 
	C691.445374,752.623840 683.522034,739.960205 670.896240,730.817688 
	C673.814209,725.400452 676.624756,719.921997 679.668762,714.576416 
	C692.733276,691.633362 705.864014,668.727966 718.989258,645.819458 
	C719.309204,645.261108 719.845947,644.826965 720.963196,644.180786 
	C727.476929,645.673584 733.978821,646.109924 736.935364,652.843384 
	C737.281555,653.631897 738.396484,654.148621 739.242615,654.640808 
	C743.244507,656.968750 747.173950,659.452759 751.318604,661.497437 
	C761.546814,666.543213 771.878723,671.378845 782.168884,676.299011 
z"/>
<path fill="#0D1849" opacity="1.000000" stroke="none" 
	d="
M380.999847,425.543762 
	C377.316406,428.145447 374.636383,430.985291 372.837189,435.328827 
	C371.704224,438.064087 368.111725,440.384003 365.101410,441.597473 
	C360.522034,443.443481 355.486359,444.151337 350.652679,445.375092 
	C347.503998,446.172302 345.302185,447.581146 345.340729,451.457458 
	C345.384308,455.839142 342.191010,457.645813 338.459900,458.884399 
	C332.798523,460.763733 327.196747,462.822601 321.221954,464.923340 
	C299.697815,428.489990 278.521393,391.938599 256.846771,354.527222 
	C259.559845,354.282471 261.136261,354.017731 262.712982,354.016327 
	C287.010345,353.994507 311.308319,353.937195 335.604187,354.133820 
	C337.721466,354.150940 340.837311,355.300568 341.782104,356.920105 
	C355.000519,379.578918 367.921661,402.411072 380.999847,425.543762 
z"/>
<path fill="#5F0505" opacity="1.000000" stroke="none" 
	d="
M782.403320,676.029175 
	C771.878723,671.378845 761.546814,666.543213 751.318604,661.497437 
	C747.173950,659.452759 743.244507,656.968750 739.242615,654.640808 
	C738.396484,654.148621 737.281555,653.631897 736.935364,652.843384 
	C733.978821,646.109924 727.476929,645.673584 721.243958,643.989807 
	C723.341980,638.902283 725.840820,633.851624 728.654480,628.164734 
	C718.937195,622.409729 709.115173,616.592712 699.112427,610.064880 
	C698.156006,606.527771 697.835083,603.467834 696.524353,600.916443 
	C691.426025,590.993286 683.566162,582.294800 683.350830,570.257324 
	C683.336914,569.482117 682.718933,568.731934 682.458862,567.944702 
	C678.410156,555.687988 674.098999,543.508850 670.428650,531.139587 
	C667.843689,522.428162 665.498108,513.550476 664.180786,504.580322 
	C662.181274,490.964874 661.318359,477.185516 659.584167,463.525085 
	C659.297974,461.270721 657.028748,459.268097 655.675903,457.149109 
	C659.735718,449.943573 663.737610,442.704498 667.883972,435.549103 
	C669.530945,432.707001 671.498108,430.050476 673.775208,427.483154 
	C674.817993,432.758850 675.581299,437.847961 675.955933,442.965515 
	C676.765930,454.031677 676.798462,465.187439 678.222046,476.167419 
	C679.838989,488.638336 681.534546,501.290527 685.182739,513.258240 
	C689.760803,528.276367 696.783142,542.531311 701.946716,557.394836 
	C706.055237,569.221252 712.453064,579.765381 720.035095,589.249451 
	C729.503906,601.093689 740.268555,611.891907 751.393799,622.399231 
	C763.463928,633.799011 778.341553,639.738708 792.108643,647.868164 
	C793.705872,648.811279 795.958923,648.643860 797.907898,648.991333 
	C792.817810,657.914001 787.727783,666.836670 782.403320,676.029175 
z"/>
<path fill="#17143D" opacity="1.000000" stroke="none" 
	d="
M349.914551,515.455322 
	C352.889435,513.470459 355.966217,511.854279 359.011536,510.180725 
	C363.921509,507.482422 368.772003,504.672852 373.729767,502.066467 
	C375.450531,501.161865 377.428802,500.138550 379.265808,500.181458 
	C384.131805,500.295013 386.235870,497.980560 386.622162,493.421478 
	C387.009827,488.846436 388.520691,485.563690 394.175629,487.044037 
	C394.903748,487.234680 396.110626,486.612701 396.740906,486.001343 
	C402.198151,480.707947 407.171783,474.828705 413.071899,470.100311 
	C421.209595,463.578735 425.051666,454.432739 429.886078,445.808563 
	C437.498383,432.228851 440.727325,417.340363 442.474121,402.130219 
	C443.301453,394.926422 442.717896,387.570587 443.054230,380.296631 
	C443.259338,375.860352 444.476624,371.435883 444.357849,367.029877 
	C444.248383,362.968811 442.961548,358.939453 442.100891,354.538391 
	C447.501556,354.126160 453.011810,354.318634 458.482269,353.938629 
	C462.817566,353.637512 465.651978,354.994232 467.648224,358.939911 
	C470.565613,364.706116 473.857574,370.282837 477.174011,376.507996 
	C477.571411,377.363861 477.784698,377.652008 477.997955,377.940186 
	C477.997955,377.940186 478.068390,377.937500 478.162292,378.227600 
	C478.513367,378.993835 478.770569,379.470001 479.027771,379.946167 
	C479.027771,379.946167 479.079712,379.951843 479.234985,380.163025 
	C479.617554,380.620941 479.844849,380.867615 480.072113,381.114319 
	C480.072113,381.114319 480.128571,381.379852 480.036438,381.903809 
	C478.151093,388.239227 475.014801,393.727722 476.518158,400.279358 
	C476.862762,401.781158 475.515656,403.686951 474.898010,405.389008 
	C474.337250,406.934113 473.504547,408.408722 473.146973,409.994507 
	C471.549347,417.079376 470.503021,424.321106 468.409119,431.249756 
	C467.077332,435.656555 463.256653,439.394257 462.287903,443.812622 
	C458.921906,459.164520 448.971649,470.592529 440.644867,483.117340 
	C436.340302,489.592102 428.538239,491.237946 424.173584,497.050842 
	C418.860413,504.126984 411.688904,508.622986 404.234680,512.905457 
	C400.255188,515.191650 396.239044,517.480042 392.556091,520.196716 
	C389.262024,522.626648 386.773651,526.312256 383.271820,528.262268 
	C376.555328,532.002380 370.070404,536.877869 361.649719,536.082336 
	C357.767273,529.320984 353.884827,522.559570 349.914551,515.455322 
z"/>
<path fill="#1E1439" opacity="1.000000" stroke="none" 
	d="
M361.776611,536.418335 
	C370.070404,536.877869 376.555328,532.002380 383.271820,528.262268 
	C386.773651,526.312256 389.262024,522.626648 392.556091,520.196716 
	C396.239044,517.480042 400.255188,515.191650 404.234680,512.905457 
	C411.688904,508.622986 418.860413,504.126984 424.173584,497.050842 
	C428.538239,491.237946 436.340302,489.592102 440.644867,483.117340 
	C448.971649,470.592529 458.921906,459.164520 462.287903,443.812622 
	C463.256653,439.394257 467.077332,435.656555 468.409119,431.249756 
	C470.503021,424.321106 471.549347,417.079376 473.146973,409.994507 
	C473.504547,408.408722 474.337250,406.934113 474.898010,405.389008 
	C475.515656,403.686951 476.862762,401.781158 476.518158,400.279358 
	C475.014801,393.727722 478.151093,388.239227 480.051147,382.038757 
	C484.554047,389.205627 489.055817,396.703583 493.257385,404.366150 
	C494.102051,405.906677 494.544250,408.371490 493.923187,409.904144 
	C487.030975,426.913574 479.893555,443.823639 472.813812,460.756989 
	C472.688110,461.057648 472.457489,461.314423 471.920593,462.113647 
	C471.371979,463.114807 471.178619,463.593964 470.985229,464.073090 
	C470.985229,464.073090 470.935394,463.984680 470.891663,464.246887 
	C470.580505,465.037567 470.313049,465.566101 470.045593,466.094604 
	C470.036926,466.282440 470.028259,466.470306 469.791046,467.134796 
	C469.369446,468.098236 469.176392,468.584991 468.983337,469.071777 
	C468.983337,469.071777 468.940521,468.982300 468.862671,469.233521 
	C468.518188,470.014221 468.251526,470.543701 467.984863,471.073212 
	C467.984894,471.073212 467.945526,470.979523 467.843018,471.238892 
	C467.852966,472.982483 467.965393,474.466705 468.077850,475.950897 
	C468.275085,475.965637 468.472351,475.980408 469.205902,476.267761 
	C472.450104,477.305878 475.157990,478.071442 477.865875,478.837006 
	C478.097839,479.144226 478.329834,479.451416 478.711670,480.308105 
	C475.681335,489.644958 472.119293,498.196838 464.786682,504.528046 
	C463.923889,505.273010 463.368622,506.362213 462.587280,507.215332 
	C457.179260,513.119812 452.086121,519.370239 446.214691,524.773682 
	C441.865936,528.775879 436.430664,531.578430 431.600739,535.082581 
	C427.625732,537.966431 423.975281,541.316284 419.893890,544.027405 
	C417.737274,545.460022 414.827759,545.705933 412.498657,546.941101 
	C401.214478,552.925415 390.011841,559.063354 378.780304,565.146912 
	C373.154694,555.682739 367.529083,546.218567 361.776611,536.418335 
z"/>
<path fill="#2D0E25" opacity="1.000000" stroke="none" 
	d="
M569.862671,491.967834 
	C567.208191,486.748718 564.553650,481.529602 561.643188,475.661163 
	C551.690247,456.745026 541.993103,438.478241 532.543335,419.870026 
	C535.160156,408.967346 538.216003,398.502014 539.709839,387.818268 
	C541.261230,376.722961 541.301514,365.416351 542.002563,354.202148 
	C557.352722,354.170624 572.702881,354.139069 588.520752,354.586121 
	C588.763123,359.038452 588.722534,363.032990 588.277588,366.981964 
	C586.977661,378.518250 585.599792,390.047333 584.085327,401.557251 
	C583.243347,407.956390 581.797119,414.282349 581.102844,420.693207 
	C579.894470,431.851990 579.208618,443.067078 578.022400,454.228638 
	C576.812317,465.615051 575.268127,476.966003 573.859436,488.331177 
	C573.569946,490.666656 572.982239,492.720764 569.862671,491.967834 
z"/>
<path fill="#A70704" opacity="1.000000" stroke="none" 
	d="
M529.052734,825.963013 
	C529.052734,825.963013 528.907532,825.554382 528.716858,825.158203 
	C528.342773,824.510010 528.146545,824.268372 527.937561,824.037109 
	C527.937561,824.037109 527.971924,824.058411 527.898071,823.784302 
	C527.571838,823.020935 527.319580,822.531677 527.067261,822.042358 
	C522.296265,813.880859 517.532837,805.714966 512.748901,797.561035 
	C511.590515,795.586792 510.364471,793.652283 509.503479,791.374756 
	C530.255920,794.486572 548.436523,803.271545 565.185181,815.012390 
	C591.802246,833.670837 607.569946,860.420227 619.750854,889.723450 
	C625.634827,903.878418 624.837830,919.098450 627.066101,933.838867 
	C627.341370,935.660339 628.923401,937.284180 629.899841,938.999634 
	C627.923584,942.841003 626.039246,946.733154 623.950806,950.512451 
	C620.357788,957.014648 616.637451,963.446472 612.541077,970.664551 
	C609.085571,964.636536 605.997131,959.248779 602.750793,953.310913 
	C602.437134,952.495667 602.259766,952.245667 602.060974,952.010864 
	C602.060974,952.010864 601.929260,951.571106 602.077637,951.010254 
	C602.815430,947.543640 604.101562,944.577698 603.857178,941.743774 
	C603.247070,934.669861 602.416626,927.545410 600.810730,920.642151 
	C597.960144,908.388123 595.188416,896.025085 590.952637,884.221191 
	C588.743713,878.065613 583.094482,873.233032 579.681885,867.403198 
	C571.791504,853.923828 560.279480,843.826477 548.340698,834.422974 
	C543.002197,830.218079 535.547241,828.700317 529.052734,825.963013 
z"/>
<path fill="#24102F" opacity="1.000000" stroke="none" 
	d="
M378.852661,565.494263 
	C390.011841,559.063354 401.214478,552.925415 412.498657,546.941101 
	C414.827759,545.705933 417.737274,545.460022 419.893890,544.027405 
	C423.975281,541.316284 427.625732,537.966431 431.600739,535.082581 
	C436.430664,531.578430 441.865936,528.775879 446.214691,524.773682 
	C452.086121,519.370239 457.179260,513.119812 462.587280,507.215332 
	C463.368622,506.362213 463.923889,505.273010 464.786682,504.528046 
	C472.119293,498.196838 475.681335,489.644958 478.920288,480.507874 
	C479.436920,480.122955 479.894867,480.087769 480.809418,480.078644 
	C481.266052,480.104675 481.612915,480.121002 481.612915,480.121002 
	C481.612915,480.121002 481.954468,480.052277 481.954468,480.052277 
	C494.142365,483.469635 506.330292,486.886993 518.772827,490.921478 
	C518.600769,492.952393 518.418213,494.504974 517.706543,495.756805 
	C513.897705,502.456665 510.109467,509.177246 506.015717,515.703491 
	C502.431946,521.416626 498.603790,526.993225 494.596283,532.417847 
	C491.957031,535.990479 489.110931,539.773254 483.616547,538.149902 
	C483.427979,537.616150 483.239410,537.082397 483.048798,536.139648 
	C483.045166,535.472412 482.963745,535.241150 482.802460,535.036804 
	C482.283264,534.569763 481.764099,534.102722 481.077637,533.046265 
	C479.241699,531.956177 477.428131,530.758423 475.928223,531.070190 
	C467.357666,532.851196 458.848022,534.936890 450.356079,537.071899 
	C449.159790,537.372681 448.173950,538.510498 447.090698,539.260864 
	C450.797028,545.883423 454.503357,552.505981 457.914490,559.664551 
	C442.175598,568.044800 427.382080,577.132874 411.169373,583.527283 
	C405.340332,585.826355 400.218781,589.919250 394.774353,593.193481 
	C389.491272,584.076172 384.208160,574.958923 378.852661,565.494263 
z"/>
<path fill="#690606" opacity="1.000000" stroke="none" 
	d="
M798.073730,648.682922 
	C795.958923,648.643860 793.705872,648.811279 792.108643,647.868164 
	C778.341553,639.738708 763.463928,633.799011 751.393799,622.399231 
	C740.268555,611.891907 729.503906,601.093689 720.035095,589.249451 
	C712.453064,579.765381 706.055237,569.221252 701.946716,557.394836 
	C696.783142,542.531311 689.760803,528.276367 685.182739,513.258240 
	C681.534546,501.290527 679.838989,488.638336 678.222046,476.167419 
	C676.798462,465.187439 676.765930,454.031677 675.955933,442.965515 
	C675.581299,437.847961 674.817993,432.758850 674.057251,427.292786 
	C677.450073,420.538239 681.016541,414.147766 684.749634,407.174988 
	C684.914185,406.396545 684.912231,406.200378 684.910339,406.004211 
	C684.910339,406.004211 684.901978,405.917938 685.082275,405.740601 
	C685.433777,405.326630 685.580688,405.075714 685.703308,404.810547 
	C685.703308,404.810547 685.854797,404.427002 686.266479,404.343506 
	C687.238098,406.114044 688.287842,407.969940 688.280884,409.821899 
	C688.223206,425.235016 685.502258,440.686005 689.261902,456.041779 
	C689.886475,458.592896 689.571472,461.360535 690.034851,463.966919 
	C692.240295,476.371094 694.320374,488.806030 696.938293,501.125244 
	C698.519775,508.567413 701.001770,515.818237 703.079102,523.155029 
	C701.967712,528.539795 707.397461,527.980591 709.848877,530.993408 
	C714.641724,548.792908 723.211426,563.958374 734.293762,577.536682 
	C743.135742,588.370056 752.326050,598.886230 763.099121,608.138977 
	C776.052429,619.264282 789.311768,629.483032 805.152344,636.056091 
	C802.848083,640.162231 800.543823,644.268372 798.073730,648.682922 
z"/>
<path fill="#950705" opacity="1.000000" stroke="none" 
	d="
M501.929688,777.126526 
	C500.869904,775.897278 499.622162,774.783386 498.784119,773.418030 
	C495.812500,768.576599 492.980713,763.649292 490.425781,758.405334 
	C500.614899,759.317566 510.547516,760.173096 520.315918,761.937622 
	C534.254578,764.455383 547.779846,768.625549 560.227295,775.526855 
	C569.960938,780.923645 579.325134,786.983826 588.979309,792.530151 
	C590.295593,793.286377 592.342773,792.770325 594.051514,792.843262 
	C597.249817,797.927612 600.530334,802.962524 603.624390,808.109436 
	C607.062134,813.828003 610.329956,819.648804 614.024658,826.035034 
	C616.083496,822.971924 617.695251,820.573975 619.567505,818.356445 
	C620.462585,820.803955 620.678223,823.307800 621.802673,825.298157 
	C627.343933,835.106873 633.917053,844.414856 638.611755,854.597656 
	C643.809937,865.872620 647.265137,877.943359 651.736206,889.568726 
	C652.523926,891.616760 654.572937,893.179626 656.039429,894.966553 
	C651.630310,902.595459 647.221191,910.224365 642.181519,917.806396 
	C640.658508,915.879089 639.476929,914.080139 638.920410,912.105164 
	C635.313660,899.305725 632.908447,886.048889 628.069275,873.744324 
	C621.397705,856.780518 613.333435,840.308228 599.354126,827.654236 
	C591.605652,820.640320 584.779175,812.495605 576.535706,806.164673 
	C559.987488,793.456055 540.916260,785.415100 520.953369,779.726501 
	C514.859924,777.990173 508.284424,777.945801 501.929688,777.126526 
z"/>
<path fill="#380C1C" opacity="1.000000" stroke="none" 
	d="
M569.869751,492.335022 
	C572.982239,492.720764 573.569946,490.666656 573.859436,488.331177 
	C575.268127,476.966003 576.812317,465.615051 578.022400,454.228638 
	C579.208618,443.067078 579.894470,431.851990 581.102844,420.693207 
	C581.797119,414.282349 583.243347,407.956390 584.085327,401.557251 
	C585.599792,390.047333 586.977661,378.518250 588.277588,366.981964 
	C588.722534,363.032990 588.763123,359.038452 588.987549,354.619019 
	C596.680054,354.148529 604.373596,354.123810 612.505005,354.536072 
	C611.293213,369.817535 609.692017,384.667572 607.979431,399.504761 
	C606.447998,412.773163 604.599182,426.007721 603.256531,439.294189 
	C602.222656,449.524963 601.498718,459.803650 601.120361,470.078827 
	C600.817017,478.315826 601.239807,486.579590 601.238647,495.119354 
	C597.763123,502.128845 594.389282,508.850403 591.015442,515.571960 
	C589.908813,517.421082 588.802124,519.270142 587.695435,521.119202 
	C586.335693,519.639099 584.671143,518.339722 583.668274,516.648010 
	C578.971313,508.725250 574.456604,500.694458 569.869751,492.335022 
z"/>
<path fill="#4C080E" opacity="1.000000" stroke="none" 
	d="
M536.063232,664.035095 
	C536.798340,662.510315 537.448059,660.936890 538.284302,659.469727 
	C540.970032,654.757507 543.726379,650.085449 546.452515,645.396179 
	C552.187073,635.531982 557.950989,625.684570 563.635437,615.791565 
	C565.502075,612.542847 567.173157,609.180969 568.906616,605.856750 
	C569.442322,604.829468 569.888977,603.755737 569.815857,603.913635 
	C580.138000,609.994690 589.206360,615.394409 598.331055,620.697327 
	C608.526062,626.622314 618.730103,632.534424 629.017334,638.296570 
	C632.966370,640.508545 634.654175,642.375549 631.364563,646.980225 
	C626.952393,653.156128 623.550720,660.053894 619.061646,666.835388 
	C614.815186,666.435364 611.240356,665.510315 607.625916,665.314209 
	C599.029663,664.847961 590.415405,664.697083 581.806946,664.478394 
	C577.494446,664.368835 573.178650,664.392151 568.864319,664.351074 
	C557.930603,664.247009 546.996948,664.140564 536.063232,664.035095 
z"/>
<path fill="#810607" opacity="1.000000" stroke="none" 
	d="
M594.006958,792.496643 
	C592.342773,792.770325 590.295593,793.286377 588.979309,792.530151 
	C579.325134,786.983826 569.960938,780.923645 560.227295,775.526855 
	C547.779846,768.625549 534.254578,764.455383 520.315918,761.937622 
	C510.547516,760.173096 500.614899,759.317566 490.278809,758.087646 
	C489.801941,758.119141 489.795258,758.034058 489.783112,757.794922 
	C489.487579,757.201172 489.204193,756.846497 488.920776,756.491821 
	C482.126770,750.287354 488.193390,745.449097 490.846680,740.489746 
	C494.698944,733.289612 499.022919,726.341736 503.585083,719.399719 
	C506.973511,720.664795 509.832581,722.323914 512.889771,722.866333 
	C520.085815,724.143250 527.539246,724.231628 534.594849,725.983704 
	C549.102051,729.586121 563.416931,733.963257 577.810913,738.021484 
	C576.048645,741.691589 574.175293,745.314453 572.585022,749.057495 
	C572.035339,750.351379 571.543274,752.300171 572.119873,753.346375 
	C579.283264,766.345642 586.648865,779.233521 594.006958,792.496643 
z"/>
<path fill="#950705" opacity="1.000000" stroke="none" 
	d="
M759.145874,426.966583 
	C759.138489,427.155945 759.131042,427.345337 759.134033,427.819031 
	C759.144531,428.103363 759.067078,428.124939 758.872498,428.227173 
	C758.435669,428.524780 758.236450,428.757080 758.080200,429.026276 
	C758.080200,429.026276 758.087280,429.084076 757.920532,429.221130 
	C757.561096,429.539001 757.421936,429.754333 757.336304,430.004181 
	C748.436462,445.256134 739.536682,460.508118 730.302612,475.512299 
	C729.420593,471.153229 729.016113,467.016907 728.302368,462.934692 
	C723.124817,433.324585 722.536743,403.969360 732.158508,374.966339 
	C734.389587,368.241028 735.438293,361.123444 737.031067,354.186371 
	C749.716919,354.133362 762.402832,354.080353 775.494995,354.451263 
	C772.075134,365.986115 767.769287,376.960175 764.550842,388.244446 
	C760.960815,400.831482 757.846436,413.630615 759.145874,426.966583 
z"/>
<path fill="#380C1C" opacity="1.000000" stroke="none" 
	d="
M554.126526,510.754211 
	C557.396545,515.866150 560.796875,520.900391 563.902588,526.110229 
	C567.539673,532.211243 571.192688,538.334412 574.260376,544.725647 
	C575.297363,546.886108 575.593079,550.469116 574.491821,552.424377 
	C563.341125,572.222107 551.825562,591.814209 540.425049,611.471436 
	C538.298584,615.137878 536.228638,618.837097 533.277893,624.023499 
	C523.423157,606.738647 514.303711,590.743469 505.372467,574.377319 
	C507.196564,573.219116 508.955963,572.616455 510.449921,571.617065 
	C532.608093,556.794128 544.696838,534.724182 554.126526,510.754211 
z"/>
<path fill="#56070B" opacity="1.000000" stroke="none" 
	d="
M655.525269,457.434082 
	C657.028748,459.268097 659.297974,461.270721 659.584167,463.525085 
	C661.318359,477.185516 662.181274,490.964874 664.180786,504.580322 
	C665.498108,513.550476 667.843689,522.428162 670.428650,531.139587 
	C674.098999,543.508850 678.410156,555.687988 682.458862,567.944702 
	C682.718933,568.731934 683.336914,569.482117 683.350830,570.257324 
	C683.566162,582.294800 691.426025,590.993286 696.524353,600.916443 
	C697.835083,603.467834 698.156006,606.527771 698.920898,609.783325 
	C688.836060,604.565002 678.753784,598.931885 668.691467,593.263489 
	C664.243835,590.757874 659.836548,588.180603 655.181763,584.948120 
	C655.056091,580.462402 655.789673,576.555420 655.154236,572.885376 
	C652.384705,556.890137 648.570984,541.051819 646.384888,524.986572 
	C644.398987,510.392639 644.026428,495.579193 642.942627,480.862549 
	C644.931885,476.997528 646.868164,473.104004 648.925293,469.275391 
	C651.012939,465.389893 653.219910,461.568512 655.525269,457.434082 
z"/>
<path fill="#2D0E25" opacity="1.000000" stroke="none" 
	d="
M554.097412,510.406433 
	C544.696838,534.724182 532.608093,556.794128 510.449921,571.617065 
	C508.955963,572.616455 507.196564,573.219116 505.188904,574.090454 
	C504.817200,574.174561 504.836151,574.065369 504.745667,573.790405 
	C504.078278,573.007629 503.501373,572.499817 502.924438,571.991943 
	C502.924438,571.991943 502.851166,571.688538 502.754944,571.215820 
	C502.406342,570.145630 502.153992,569.548096 501.901642,568.950623 
	C495.866852,558.910095 489.832092,548.869568 483.706909,538.489502 
	C489.110931,539.773254 491.957031,535.990479 494.596283,532.417847 
	C498.603790,526.993225 502.431946,521.416626 506.015717,515.703491 
	C510.109467,509.177246 513.897705,502.456665 517.706543,495.756805 
	C518.418213,494.504974 518.600769,492.952393 519.075134,491.134705 
	C528.011597,492.799286 536.915955,494.805634 545.769348,497.016022 
	C546.856201,497.287384 547.958618,498.485962 548.558289,499.537445 
	C550.518311,502.974121 552.249268,506.541504 554.097412,510.406433 
z"/>
<path fill="#5F0505" opacity="1.000000" stroke="none" 
	d="
M670.626526,730.987427 
	C683.522034,739.960205 691.445374,752.623840 697.897461,766.475708 
	C701.542175,774.300354 705.493896,781.991882 709.613831,789.576904 
	C710.430237,791.079895 712.644409,791.823669 714.571655,792.959717 
	C708.031006,804.818176 701.132690,816.634644 693.691101,828.699585 
	C689.848083,825.011230 686.004761,821.403809 683.373779,817.061768 
	C679.258789,810.270630 676.622986,802.532654 672.169434,796.008911 
	C665.267883,785.899231 657.363525,776.474121 649.884399,766.758789 
	C652.879028,761.056091 655.697449,755.251709 658.915100,749.677795 
	C662.541443,743.395996 666.527344,737.321716 670.626526,730.987427 
z"/>
<path fill="#9F0704" opacity="1.000000" stroke="none" 
	d="
M501.941742,777.500244 
	C508.284424,777.945801 514.859924,777.990173 520.953369,779.726501 
	C540.916260,785.415100 559.987488,793.456055 576.535706,806.164673 
	C584.779175,812.495605 591.605652,820.640320 599.354126,827.654236 
	C613.333435,840.308228 621.397705,856.780518 628.069275,873.744324 
	C632.908447,886.048889 635.313660,899.305725 638.920410,912.105164 
	C639.476929,914.080139 640.658508,915.879089 641.863342,917.955383 
	C638.188721,924.894714 634.201782,931.638123 630.057373,938.690552 
	C628.923401,937.284180 627.341370,935.660339 627.066101,933.838867 
	C624.837830,919.098450 625.634827,903.878418 619.750854,889.723450 
	C607.569946,860.420227 591.802246,833.670837 565.185181,815.012390 
	C548.436523,803.271545 530.255920,794.486572 509.434509,791.035278 
	C506.672333,786.638306 504.313080,782.256165 501.941742,777.500244 
z"/>
<path fill="#CC0804" opacity="1.000000" stroke="none" 
	d="
M902.549561,354.094849 
	C901.642273,355.031219 900.378235,356.237915 898.882141,356.710693 
	C867.431824,366.649506 850.823669,388.602814 847.219116,420.844421 
	C846.687805,425.597290 844.941833,427.156219 840.394348,427.045502 
	C831.579956,426.830994 822.756836,426.974487 813.497437,426.538269 
	C813.364990,423.478058 813.843994,420.856262 813.953125,418.219177 
	C814.875854,395.924438 822.909424,376.367706 836.525085,358.901947 
	C837.604248,357.517639 838.198303,355.755157 839.017822,354.168457 
	C860.040161,354.120117 881.062439,354.071777 902.549561,354.094849 
z"/>
<path fill="#440914" opacity="1.000000" stroke="none" 
	d="
M601.340393,494.831482 
	C601.239807,486.579590 600.817017,478.315826 601.120361,470.078827 
	C601.498718,459.803650 602.222656,449.524963 603.256531,439.294189 
	C604.599182,426.007721 606.447998,412.773163 607.979431,399.504761 
	C609.692017,384.667572 611.293213,369.817535 612.972412,354.572723 
	C621.038025,354.148193 629.074036,354.123962 637.547241,354.524048 
	C637.023438,358.286652 635.707336,361.568207 635.163086,364.973145 
	C632.832092,379.553436 630.116882,394.112488 628.735291,408.791626 
	C627.623352,420.605011 628.224915,432.579651 627.984497,444.786530 
	C619.048645,461.670685 610.194519,478.251068 601.340393,494.831482 
z"/>
<path fill="#4C080E" opacity="1.000000" stroke="none" 
	d="
M642.572998,480.908630 
	C644.026428,495.579193 644.398987,510.392639 646.384888,524.986572 
	C648.570984,541.051819 652.384705,556.890137 655.154236,572.885376 
	C655.789673,576.555420 655.056091,580.462402 654.939331,584.714844 
	C645.224060,579.757996 635.487976,574.406494 625.830200,568.916992 
	C617.495972,564.179749 609.250977,559.285522 600.113037,553.963623 
	C606.496765,542.731750 612.806213,531.676392 619.071167,520.596008 
	C626.315613,507.783264 633.514038,494.944519 640.768982,482.137787 
	C641.054260,481.634125 641.716736,481.344177 642.572998,480.908630 
z"/>
<path fill="#730604" opacity="1.000000" stroke="none" 
	d="
M703.374390,522.969788 
	C701.001770,515.818237 698.519775,508.567413 696.938293,501.125244 
	C694.320374,488.806030 692.240295,476.371094 690.034851,463.966919 
	C689.571472,461.360535 689.886475,458.592896 689.261902,456.041779 
	C685.502258,440.686005 688.223206,425.235016 688.280884,409.821899 
	C688.287842,407.969940 687.238098,406.114044 686.344360,404.152557 
	C694.125427,389.996765 702.208435,375.929779 710.380554,361.914764 
	C712.150391,358.879486 712.266357,354.282562 717.623535,354.509277 
	C717.558594,356.727448 717.159241,358.510681 716.754639,360.292725 
	C712.122925,380.692139 705.690918,400.784851 706.926636,422.147827 
	C707.252014,427.772705 706.741943,433.449097 706.549866,439.099579 
	C706.416748,443.015656 705.446655,447.054382 706.104248,450.819305 
	C708.565186,464.908142 711.451843,478.926056 714.434509,492.916077 
	C714.829102,494.766998 716.699280,496.303314 717.886108,497.985321 
	C713.147278,506.251740 708.408508,514.518127 703.374390,522.969788 
z"/>
<path fill="#730604" opacity="1.000000" stroke="none" 
	d="
M649.533203,766.856995 
	C657.363525,776.474121 665.267883,785.899231 672.169434,796.008911 
	C676.622986,802.532654 679.258789,810.270630 683.373779,817.061768 
	C686.004761,821.403809 689.848083,825.011230 693.498047,828.992798 
	C686.964539,840.827393 680.080872,852.617249 672.717651,864.571411 
	C670.857849,862.736328 669.230286,860.862671 668.137329,858.716736 
	C661.224670,845.144226 654.884094,831.256042 647.421875,817.997070 
	C643.150513,810.407593 637.118835,803.808716 631.879700,796.763855 
	C631.879700,796.763855 631.952515,796.380371 632.304565,796.039917 
	C633.400146,794.395813 634.143616,793.092224 634.887085,791.788635 
	C639.652161,783.510803 644.417114,775.233032 649.533203,766.856995 
z"/>
<path fill="#730604" opacity="1.000000" stroke="none" 
	d="
M805.403503,635.827026 
	C789.311768,629.483032 776.052429,619.264282 763.099121,608.138977 
	C752.326050,598.886230 743.135742,588.370056 734.293762,577.536682 
	C723.211426,563.958374 714.641724,548.792908 710.076721,531.238770 
	C719.846130,536.460632 729.625122,542.086975 739.746399,548.267944 
	C741.328857,551.683105 742.142029,554.843018 743.895081,557.344177 
	C747.964294,563.149414 752.373413,568.729797 756.867004,574.219421 
	C759.799866,577.802368 763.052490,581.134277 766.282959,584.461060 
	C779.149658,597.711060 794.691040,607.251526 810.543701,616.379333 
	C812.009583,617.223267 812.964844,618.953979 814.157288,620.272888 
	C811.323059,625.381226 808.488831,630.489624 805.403503,635.827026 
z"/>
<path fill="#810607" opacity="1.000000" stroke="none" 
	d="
M718.062988,497.685242 
	C716.699280,496.303314 714.829102,494.766998 714.434509,492.916077 
	C711.451843,478.926056 708.565186,464.908142 706.104248,450.819305 
	C705.446655,447.054382 706.416748,443.015656 706.549866,439.099579 
	C706.741943,433.449097 707.252014,427.772705 706.926636,422.147827 
	C705.690918,400.784851 712.122925,380.692139 716.754639,360.292725 
	C717.159241,358.510681 717.558594,356.727448 717.991089,354.554871 
	C724.047180,354.129181 730.072571,354.093445 736.564514,354.122070 
	C735.438293,361.123444 734.389587,368.241028 732.158508,374.966339 
	C722.536743,403.969360 723.124817,433.324585 728.302368,462.934692 
	C729.016113,467.016907 729.420593,471.153229 730.004028,475.691650 
	C726.106445,483.207611 722.173157,490.296387 718.062988,497.685242 
z"/>
<path fill="#BA0905" opacity="1.000000" stroke="none" 
	d="
M529.103149,826.313171 
	C535.547241,828.700317 543.002197,830.218079 548.340698,834.422974 
	C560.279480,843.826477 571.791504,853.923828 579.681885,867.403198 
	C583.094482,873.233032 588.743713,878.065613 590.952637,884.221191 
	C595.188416,896.025085 597.960144,908.388123 600.810730,920.642151 
	C602.416626,927.545410 603.247070,934.669861 603.857178,941.743774 
	C604.101562,944.577698 602.815430,947.543640 602.023315,950.787354 
	C598.093933,944.871887 594.316162,938.648499 590.649902,932.359924 
	C578.069458,910.781189 565.529846,889.178406 552.971008,867.587036 
	C545.035278,853.943787 537.092957,840.304443 529.103149,826.313171 
z"/>
<path fill="#470C1C" opacity="1.000000" stroke="none" 
	d="
M488.209595,610.627563 
	C494.474823,621.836670 500.740021,633.045898 506.757629,644.761597 
	C504.001587,646.133789 501.551697,647.275940 498.975494,647.821777 
	C477.365509,652.399902 455.732330,656.868652 434.106140,661.370422 
	C433.955780,661.278320 433.805450,661.186157 433.540863,660.691040 
	C433.266937,659.936218 433.107208,659.584412 432.947479,659.232605 
	C432.947479,659.232605 432.729767,659.160217 432.594391,658.921631 
	C432.304504,658.512695 432.154114,658.338806 432.007874,658.161316 
	C427.686646,650.685486 423.365417,643.209656 419.313080,635.334473 
	C427.435089,632.386658 435.287109,629.834961 443.141510,627.290527 
	C457.126221,622.760315 471.128052,618.281616 485.070679,613.625427 
	C486.312225,613.210754 487.172363,611.653931 488.209595,610.627563 
z"/>
<path fill="#BA0905" opacity="1.000000" stroke="none" 
	d="
M807.779968,497.861206 
	C807.779968,497.861206 807.920044,497.400757 808.126770,497.001404 
	C808.531555,496.380493 808.732727,496.161865 808.937134,495.946167 
	C808.937134,495.946167 808.997559,495.987213 809.087646,495.723694 
	C809.392822,494.952820 809.607910,494.445496 809.823059,493.938171 
	C809.823059,493.938171 809.887573,493.887421 810.032104,493.673096 
	C810.391052,492.951935 810.605347,492.445129 810.819641,491.938324 
	C810.819641,491.938324 810.881104,491.874969 811.048218,491.737518 
	C811.392334,491.377167 811.554810,491.144226 811.702942,490.901245 
	C815.062378,485.122681 818.421814,479.344116 822.058105,473.082153 
	C822.489502,472.372589 822.640320,472.143921 822.787292,471.912720 
	C823.286011,470.671661 823.784668,469.430634 824.935913,468.085846 
	C827.490845,469.651581 829.972168,470.976349 831.203674,473.045135 
	C840.930298,489.384949 854.157898,502.011536 870.651001,511.357880 
	C872.307983,512.296936 873.604004,513.872803 875.067627,515.153137 
	C869.788635,524.230713 864.509583,533.308289 858.715576,542.654907 
	C856.653809,542.357544 855.003601,541.979614 853.576111,541.195923 
	C838.466064,532.900818 825.259644,522.291931 814.736572,508.559692 
	C812.156921,505.193359 810.085205,501.437805 807.779968,497.861206 
z"/>
<path fill="#BA0905" opacity="1.000000" stroke="none" 
	d="
M838.552612,354.098145 
	C838.198303,355.755157 837.604248,357.517639 836.525085,358.901947 
	C822.909424,376.367706 814.875854,395.924438 813.953125,418.219177 
	C813.843994,420.856262 813.364990,423.478058 813.028931,426.525024 
	C803.309814,426.954773 793.619202,426.966400 783.461914,426.489136 
	C783.004883,404.062500 786.864990,383.041718 797.650330,363.621490 
	C799.331177,360.595001 800.576050,357.326324 802.022461,354.169617 
	C814.044128,354.122345 826.065796,354.075104 838.552612,354.098145 
z"/>
<path fill="#CC0804" opacity="1.000000" stroke="none" 
	d="
M875.371948,514.971680 
	C873.604004,513.872803 872.307983,512.296936 870.651001,511.357880 
	C854.157898,502.011536 840.930298,489.384949 831.203674,473.045135 
	C829.972168,470.976349 827.490845,469.651581 825.225342,467.906433 
	C830.564270,458.057983 836.293457,448.300842 841.950684,438.502197 
	C843.490417,435.835297 844.813232,433.043152 846.531128,430.124695 
	C848.108887,432.514160 849.912476,434.957611 850.590515,437.681274 
	C855.843018,458.780060 867.367188,474.886444 887.182373,484.566193 
	C888.219482,485.072815 889.331299,485.426453 890.762573,485.950500 
	C888.533813,491.091217 886.023438,496.171783 883.346252,501.162872 
	C880.882874,505.755341 878.240051,510.251617 875.371948,514.971680 
z"/>
<path fill="#380C1C" opacity="1.000000" stroke="none" 
	d="
M487.997467,610.369995 
	C487.172363,611.653931 486.312225,613.210754 485.070679,613.625427 
	C471.128052,618.281616 457.126221,622.760315 443.141510,627.290527 
	C435.287109,629.834961 427.435089,632.386658 419.196838,635.004150 
	C418.811737,635.073242 418.788605,634.981934 418.778564,634.712769 
	C418.505493,633.992249 418.242432,633.540894 417.979370,633.089478 
	C417.979401,633.089478 417.880646,633.066528 417.825562,632.749939 
	C417.502045,631.955811 417.233673,631.478333 416.965271,631.000793 
	C412.940674,624.302368 408.916107,617.604004 405.212585,610.430176 
	C409.458069,608.616882 413.395081,607.314453 417.303131,605.930420 
	C420.699951,604.727417 424.115845,603.553772 427.428528,602.144409 
	C430.923981,600.657288 434.244598,598.755493 437.751465,597.299622 
	C447.223633,593.366821 456.792511,589.664795 466.229126,585.650513 
	C468.112274,584.849426 469.578888,583.069092 471.237579,581.740356 
	C476.151917,590.233215 481.063049,598.727966 485.984833,607.216492 
	C486.554718,608.199341 487.183716,609.147888 487.997467,610.369995 
z"/>
<path fill="#810607" opacity="1.000000" stroke="none" 
	d="
M631.578918,796.947205 
	C637.118835,803.808716 643.150513,810.407593 647.421875,817.997070 
	C654.884094,831.256042 661.224670,845.144226 668.137329,858.716736 
	C669.230286,860.862671 670.857849,862.736328 672.541138,864.875610 
	C668.739319,872.415222 664.622314,879.808167 660.538757,887.219666 
	C659.523376,889.062561 658.616394,890.965149 657.256775,893.212952 
	C656.665527,893.750244 656.504639,893.938416 656.371277,894.150146 
	C656.371277,894.150146 656.190369,894.552917 656.114868,894.759766 
	C654.572937,893.179626 652.523926,891.616760 651.736206,889.568726 
	C647.265137,877.943359 643.809937,865.872620 638.611755,854.597656 
	C633.917053,844.414856 627.343933,835.106873 621.802673,825.298157 
	C620.678223,823.307800 620.462585,820.803955 619.863403,818.179626 
	C623.691956,810.925110 627.485046,804.027832 631.578918,796.947205 
z"/>
<path fill="#56070B" opacity="1.000000" stroke="none" 
	d="
M535.899658,664.311340 
	C546.996948,664.140564 557.930603,664.247009 568.864319,664.351074 
	C573.178650,664.392151 577.494446,664.368835 581.806946,664.478394 
	C590.415405,664.697083 599.029663,664.847961 607.625916,665.314209 
	C611.240356,665.510315 614.815186,666.435364 618.827881,667.078247 
	C619.247803,667.127441 619.099731,667.543030 618.910400,667.837524 
	C618.568054,668.485535 618.415100,668.839111 618.262085,669.192627 
	C613.598083,677.273193 608.934021,685.353821 603.779297,693.849365 
	C600.287720,696.751221 597.103760,697.124634 593.592773,695.312012 
	C592.431763,694.712708 591.074524,694.461060 589.782654,694.152283 
	C571.308289,689.737183 552.642395,686.662048 533.628479,685.803284 
	C530.698242,685.670959 527.813354,684.537354 524.907471,683.866821 
	C524.915344,683.468872 524.923218,683.070862 525.103149,682.169067 
	C525.449646,681.384705 525.593323,681.089233 525.706177,680.778748 
	C525.706177,680.778748 525.839600,680.449402 526.110657,680.117615 
	C526.602783,679.529968 526.823853,679.274170 527.044922,679.018311 
	C529.942017,674.208069 532.839050,669.397827 535.899658,664.311340 
z"/>
<path fill="#56070B" opacity="1.000000" stroke="none" 
	d="
M628.066162,444.482758 
	C628.224915,432.579651 627.623352,420.605011 628.735291,408.791626 
	C630.116882,394.112488 632.832092,379.553436 635.163086,364.973145 
	C635.707336,361.568207 637.023438,358.286652 638.016968,354.571381 
	C650.821350,354.194458 663.593323,354.194458 677.979919,354.194458 
	C674.388184,360.787750 671.301880,366.453247 667.792664,372.509399 
	C664.600037,378.296173 661.830322,383.692261 659.060669,389.088379 
	C659.060608,389.088348 659.030945,389.033539 658.738770,389.127991 
	C657.380066,390.881012 656.202332,392.479187 655.264343,394.207489 
	C646.175293,410.953461 637.126465,427.721222 628.066162,444.482758 
z"/>
<path fill="#56070B" opacity="1.000000" stroke="none" 
	d="
M434.195862,661.672302 
	C455.732330,656.868652 477.365509,652.399902 498.975494,647.821777 
	C501.551697,647.275940 504.001587,646.133789 506.857025,645.108765 
	C509.177094,647.969666 511.365509,650.878601 513.013977,654.066711 
	C513.646362,655.289856 513.587341,657.444702 512.918518,658.670349 
	C509.378723,665.156860 505.544373,671.482605 501.076660,678.000427 
	C491.605591,678.927734 482.859528,679.619934 474.137115,680.536926 
	C465.081146,681.488892 456.048035,682.658386 447.004944,683.732788 
	C442.765137,676.479919 438.525330,669.227051 434.195862,661.672302 
z"/>
<path fill="#810607" opacity="1.000000" stroke="none" 
	d="
M814.445435,620.072632 
	C812.964844,618.953979 812.009583,617.223267 810.543701,616.379333 
	C794.691040,607.251526 779.149658,597.711060 766.282959,584.461060 
	C763.052490,581.134277 759.799866,577.802368 756.867004,574.219421 
	C752.373413,568.729797 747.964294,563.149414 743.895081,557.344177 
	C742.142029,554.843018 741.328857,551.683105 740.039307,548.450928 
	C753.897705,556.009888 767.810852,563.931213 781.711914,571.873535 
	C795.182983,579.570251 808.650085,587.273987 822.094482,595.017090 
	C823.644226,595.909546 825.037415,597.073730 827.218567,598.618652 
	C823.002563,605.795715 818.868042,612.834045 814.445435,620.072632 
z"/>
<path fill="#A70704" opacity="1.000000" stroke="none" 
	d="
M807.476196,498.018585 
	C810.085205,501.437805 812.156921,505.193359 814.736572,508.559692 
	C825.259644,522.291931 838.466064,532.900818 853.576111,541.195923 
	C855.003601,541.979614 856.653809,542.357544 858.565308,542.972595 
	C855.089050,550.009277 851.248169,556.997192 847.150085,564.453064 
	C827.383301,552.993958 808.223328,541.886658 788.702820,530.570312 
	C794.915344,519.674011 801.043884,508.924988 807.476196,498.018585 
z"/>
<path fill="#A70704" opacity="1.000000" stroke="none" 
	d="
M801.556824,354.100464 
	C800.576050,357.326324 799.331177,360.595001 797.650330,363.621490 
	C786.864990,383.041718 783.004883,404.062500 782.993591,426.458679 
	C775.344543,426.956085 767.697144,426.995056 759.597778,427.000305 
	C757.846436,413.630615 760.960815,400.831482 764.550842,388.244446 
	C767.769287,376.960175 772.075134,365.986115 775.960938,354.516418 
	C784.377441,354.115540 792.734314,354.073425 801.556824,354.100464 
z"/>
<path fill="#2D0E25" opacity="1.000000" stroke="none" 
	d="
M471.179932,581.550903 
	C469.578888,583.069092 468.112274,584.849426 466.229126,585.650513 
	C456.792511,589.664795 447.223633,593.366821 437.751465,597.299622 
	C434.244598,598.755493 430.923981,600.657288 427.428528,602.144409 
	C424.115845,603.553772 420.699951,604.727417 417.303131,605.930420 
	C413.395081,607.314453 409.458069,608.616882 405.163086,610.078979 
	C404.792542,610.203308 404.786316,610.053955 404.711243,609.869812 
	C404.439209,609.480225 404.233582,609.283813 404.019318,609.096436 
	C404.019318,609.096436 403.893158,609.083313 403.805115,608.759033 
	C403.448822,607.949219 403.180542,607.463623 402.912262,606.978027 
	C401.038422,603.611694 399.164581,600.245300 396.970764,596.381592 
	C396.438171,595.614075 396.225525,595.343811 396.012878,595.073608 
	C396.012878,595.073608 395.918945,595.071106 395.833618,594.770142 
	C395.490906,593.999817 395.233551,593.530518 394.976196,593.061218 
	C394.976196,593.061218 394.916626,593.188538 394.845490,593.191040 
	C400.218781,589.919250 405.340332,585.826355 411.169373,583.527283 
	C427.382080,577.132874 442.175598,568.044800 457.948944,560.031738 
	C462.106201,566.283447 465.933777,572.703796 470.064941,579.637390 
	C470.579803,580.428284 470.791107,580.705994 471.002441,580.983704 
	C471.002441,580.983704 471.122253,581.361389 471.179932,581.550903 
z"/>
<path fill="#690606" opacity="1.000000" stroke="none" 
	d="
M524.571106,683.895508 
	C527.813354,684.537354 530.698242,685.670959 533.628479,685.803284 
	C552.642395,686.662048 571.308289,689.737183 589.782654,694.152283 
	C591.074524,694.461060 592.431763,694.712708 593.592773,695.312012 
	C597.103760,697.124634 600.287720,696.751221 603.607666,694.154297 
	C599.016968,702.171631 594.107361,710.298889 588.646912,718.661377 
	C572.177490,712.276123 555.444336,708.895996 538.484314,706.410034 
	C529.948914,705.158875 521.418335,703.874756 512.885620,702.605591 
	C516.668640,696.378418 520.451660,690.151306 524.571106,683.895508 
z"/>
<path fill="#70070A" opacity="1.000000" stroke="none" 
	d="
M512.597046,702.812683 
	C521.418335,703.874756 529.948914,705.158875 538.484314,706.410034 
	C555.444336,708.895996 572.177490,712.276123 588.456665,718.952515 
	C585.276123,725.151855 581.735107,731.295288 578.002502,737.730103 
	C563.416931,733.963257 549.102051,729.586121 534.594849,725.983704 
	C527.539246,724.231628 520.085815,724.143250 512.889771,722.866333 
	C509.832581,722.323914 506.973511,720.664795 503.846405,719.179077 
	C503.668396,718.845093 503.826569,718.450378 504.037781,718.062866 
	C504.415588,717.417236 504.541565,717.140686 504.626923,716.845703 
	C504.626923,716.845703 504.807526,716.455933 505.060944,716.102295 
	C505.524658,715.530457 505.698975,715.286499 505.837311,715.016785 
	C505.837311,715.016785 505.842987,714.861755 506.052795,714.708130 
	C506.426208,714.339783 506.564606,714.109802 506.677734,713.864624 
	C508.554626,710.249695 510.431519,706.634766 512.597046,702.812683 
z"/>
<path fill="#24102F" opacity="1.000000" stroke="none" 
	d="
M541.534546,354.163544 
	C541.301514,365.416351 541.261230,376.722961 539.709839,387.818268 
	C538.216003,398.502014 535.160156,408.967346 532.343811,419.618103 
	C525.115540,407.128571 518.268738,394.584167 511.574341,381.958954 
	C506.756378,372.872620 502.141602,363.678528 497.436157,354.532501 
	C511.979645,354.396637 526.523071,354.260803 541.534546,354.163544 
z"/>
<path fill="#70070A" opacity="1.000000" stroke="none" 
	d="
M447.019287,684.108582 
	C456.048035,682.658386 465.081146,681.488892 474.137115,680.536926 
	C482.859528,679.619934 491.605591,678.927734 500.777832,678.172546 
	C496.256744,687.290161 491.315369,696.381042 486.333771,705.449768 
	C484.203094,709.328491 482.023590,713.181580 479.790619,717.002075 
	C479.139984,718.115234 478.415833,719.337036 477.405182,720.063477 
	C471.207275,724.518555 470.599304,724.383911 466.532898,717.546265 
	C459.992981,706.549500 453.529449,695.507324 447.019287,684.108582 
z"/>
<path fill="#6C5069" opacity="1.000000" stroke="none" 
	d="
M627.984497,444.786530 
	C637.126465,427.721222 646.175293,410.953461 655.264343,394.207489 
	C656.202332,392.479187 657.380066,390.881012 658.769653,389.123810 
	C658.891602,390.134430 658.948853,391.379456 658.448730,392.331573 
	C654.280701,400.266357 649.940186,408.110687 645.786926,416.053009 
	C639.761841,427.574799 633.917847,439.191589 627.862488,450.697235 
	C624.448914,457.183380 620.671387,463.477386 617.225464,469.947235 
	C610.794006,482.022369 604.569519,494.208405 598.068359,506.245392 
	C596.316772,509.488464 593.879150,512.361023 591.385925,515.487793 
	C594.389282,508.850403 597.763123,502.128845 601.238647,495.119385 
	C610.194519,478.251068 619.048645,461.670685 627.984497,444.786530 
z"/>
<path fill="#6C5069" opacity="1.000000" stroke="none" 
	d="
M497.134766,354.447266 
	C502.141602,363.678528 506.756378,372.872620 511.574341,381.958954 
	C518.268738,394.584167 525.115540,407.128571 532.096558,419.959503 
	C541.993103,438.478241 551.690247,456.745026 561.562012,475.277039 
	C560.599731,474.678223 559.006836,474.058105 558.394409,472.913422 
	C549.429749,456.157501 540.716980,439.266266 531.695374,422.541534 
	C523.370911,407.109344 514.693787,391.867828 506.282410,376.481964 
	C502.580780,369.711029 499.135559,362.799194 495.669312,355.903381 
	C495.541412,355.648956 496.422516,354.887299 497.134766,354.447266 
z"/>
<path fill="#6C5069" opacity="1.000000" stroke="none" 
	d="
M447.481232,539.143982 
	C448.173950,538.510498 449.159790,537.372681 450.356079,537.071899 
	C458.848022,534.936890 467.357666,532.851196 475.928223,531.070190 
	C477.428131,530.758423 479.241699,531.956177 480.958893,532.811279 
	C479.325409,532.951843 477.542480,532.266418 475.977966,532.601379 
	C466.581421,534.613220 457.235016,536.859436 447.481232,539.143982 
z"/>
<path fill="#6C5069" opacity="1.000000" stroke="none" 
	d="
M659.434692,389.101318 
	C661.830322,383.692261 664.600037,378.296173 667.671570,372.881439 
	C665.251831,378.279938 662.530273,383.697083 659.434692,389.101318 
z"/>
<path fill="#6C5069" opacity="1.000000" stroke="none" 
	d="
M477.641937,478.574585 
	C475.157990,478.071442 472.450104,477.305878 469.494568,476.336182 
	C471.970642,476.858734 474.694305,477.585449 477.641937,478.574585 
z"/>
<path fill="#6C5069" opacity="1.000000" stroke="none" 
	d="
M467.914642,475.670349 
	C467.965393,474.466705 467.852966,472.982483 467.889862,471.219177 
	C467.943268,472.423279 467.847351,473.906525 467.914642,475.670349 
z"/>
<path fill="#810607" opacity="1.000000" stroke="none" 
	d="
M634.605957,791.954224 
	C634.143616,793.092224 633.400146,794.395813 632.363281,795.853760 
	C632.821533,794.711975 633.573242,793.415894 634.605957,791.954224 
z"/>
<path fill="#380C1C" opacity="1.000000" stroke="none" 
	d="
M503.036133,572.267212 
	C503.501373,572.499817 504.078278,573.007629 504.797485,573.770813 
	C504.342438,573.531616 503.745117,573.037048 503.036133,572.267212 
z"/>
<path fill="#A70704" opacity="1.000000" stroke="none" 
	d="
M810.537781,492.065216 
	C810.605347,492.445129 810.391052,492.951935 810.057495,493.705292 
	C810.044250,493.365265 810.150085,492.778687 810.537781,492.065216 
z"/>
<path fill="#4C080E" opacity="1.000000" stroke="none" 
	d="
M618.453186,669.035278 
	C618.415100,668.839111 618.568054,668.485535 618.854370,668.050903 
	C618.994507,668.318420 618.880005,668.621155 618.453186,669.035278 
z"/>
<path fill="#56070B" opacity="1.000000" stroke="none" 
	d="
M432.915161,659.453857 
	C433.107208,659.584412 433.266937,659.936218 433.415222,660.458313 
	C433.230133,660.310791 433.056488,659.992981 432.915161,659.453857 
z"/>
<path fill="#1E1439" opacity="1.000000" stroke="none" 
	d="
M479.021362,379.654327 
	C478.770569,379.470001 478.513367,378.993835 478.163513,378.262817 
	C478.385529,378.459473 478.700256,378.910980 479.021362,379.654327 
z"/>
<path fill="#470C1C" opacity="1.000000" stroke="none" 
	d="
M417.951599,633.381836 
	C418.242432,633.540894 418.505493,633.992249 418.824158,634.700989 
	C418.561127,634.530273 418.242493,634.102234 417.951599,633.381836 
z"/>
<path fill="#470C1C" opacity="1.000000" stroke="none" 
	d="
M416.959229,631.302734 
	C417.233673,631.478333 417.502045,631.955811 417.836945,632.700562 
	C417.586700,632.513428 417.269958,632.059021 416.959229,631.302734 
z"/>
<path fill="#380C1C" opacity="1.000000" stroke="none" 
	d="
M402.923889,607.278442 
	C403.180542,607.463623 403.448822,607.949219 403.811584,608.695984 
	C403.582581,608.497681 403.259033,608.038269 402.923889,607.278442 
z"/>
<path fill="#BA0905" opacity="1.000000" stroke="none" 
	d="
M527.018127,822.352783 
	C527.319580,822.531677 527.571838,823.020935 527.875366,823.783447 
	C527.607361,823.592224 527.288208,823.127747 527.018127,822.352783 
z"/>
<path fill="#24102F" opacity="1.000000" stroke="none" 
	d="
M394.974365,593.353271 
	C395.233551,593.530518 395.490906,593.999817 395.834778,594.723145 
	C395.605072,594.533264 395.288818,594.089294 394.974365,593.353271 
z"/>
<path fill="#6C5069" opacity="1.000000" stroke="none" 
	d="
M471.199829,463.908203 
	C471.178619,463.593964 471.371979,463.114807 471.725281,462.433563 
	C471.728271,462.735443 471.571350,463.239380 471.199829,463.908203 
z"/>
<path fill="#950705" opacity="1.000000" stroke="none" 
	d="
M488.907166,756.749268 
	C489.204193,756.846497 489.487579,757.201172 489.825653,757.791199 
	C489.551392,757.686646 489.222473,757.346680 488.907166,756.749268 
z"/>
<path fill="#380C1C" opacity="1.000000" stroke="none" 
	d="
M501.902039,569.290222 
	C502.153992,569.548096 502.406342,570.145630 502.731262,571.061523 
	C502.503357,570.796631 502.202881,570.213196 501.902039,569.290222 
z"/>
<path fill="#6C5069" opacity="1.000000" stroke="none" 
	d="
M470.271973,465.890137 
	C470.313049,465.566101 470.580505,465.037567 470.935852,464.221924 
	C470.848602,464.518402 470.673462,465.102020 470.271973,465.890137 
z"/>
<path fill="#6C5069" opacity="1.000000" stroke="none" 
	d="
M469.202179,468.906982 
	C469.176392,468.584991 469.369446,468.098236 469.729858,467.410156 
	C469.738464,467.720001 469.579742,468.231110 469.202179,468.906982 
z"/>
<path fill="#6C5069" opacity="1.000000" stroke="none" 
	d="
M468.227844,470.882690 
	C468.251526,470.543701 468.518188,470.014221 468.907410,469.212097 
	C468.843658,469.523682 468.657257,470.107910 468.227844,470.882690 
z"/>
<path fill="#A70704" opacity="1.000000" stroke="none" 
	d="
M809.540527,494.064636 
	C809.607910,494.445496 809.392822,494.952820 809.058044,495.707062 
	C809.044861,495.366333 809.151428,494.778717 809.540527,494.064636 
z"/>
<path fill="#BA0905" opacity="1.000000" stroke="none" 
	d="
M527.978271,824.286255 
	C528.146545,824.268372 528.342773,824.510010 528.655762,824.950134 
	C528.440613,825.050903 528.185181,824.849915 527.978271,824.286255 
z"/>
<path fill="#950705" opacity="1.000000" stroke="none" 
	d="
M656.548340,894.073242 
	C656.504639,893.938416 656.665527,893.750244 657.001343,893.478394 
	C657.086731,893.633301 656.945618,893.841675 656.548340,894.073242 
z"/>
<path fill="#810607" opacity="1.000000" stroke="none" 
	d="
M504.415344,716.978577 
	C504.541565,717.140686 504.415588,717.417236 504.116943,717.865540 
	C504.057892,717.741028 504.130859,717.426208 504.415344,716.978577 
z"/>
<path fill="#810607" opacity="1.000000" stroke="none" 
	d="
M505.575989,715.065552 
	C505.698975,715.286499 505.524658,715.530457 505.153961,715.908691 
	C505.100616,715.750610 505.207642,715.432495 505.575989,715.065552 
z"/>
<path fill="#810607" opacity="1.000000" stroke="none" 
	d="
M506.487000,713.968994 
	C506.564606,714.109802 506.426208,714.339783 506.130310,714.710938 
	C505.948547,714.546448 506.047943,714.281799 506.487000,713.968994 
z"/>
<path fill="#BA0905" opacity="1.000000" stroke="none" 
	d="
M602.057983,952.267090 
	C602.259766,952.245667 602.437134,952.495667 602.707520,952.956055 
	C602.566345,952.942017 602.310608,952.732727 602.057983,952.267090 
z"/>
<path fill="#A70704" opacity="1.000000" stroke="none" 
	d="
M811.489197,490.995880 
	C811.554810,491.144226 811.392334,491.377167 811.079956,491.768219 
	C810.894775,491.591583 811.005066,491.309631 811.489197,490.995880 
z"/>
<path fill="#1E1439" opacity="1.000000" stroke="none" 
	d="
M477.915283,377.676605 
	C477.784698,377.652008 477.571411,377.363861 477.213623,376.845123 
	C477.323578,376.880737 477.578064,377.146881 477.915283,377.676605 
z"/>
<path fill="#1E1439" opacity="1.000000" stroke="none" 
	d="
M479.985779,380.860809 
	C479.844849,380.867615 479.617554,380.620941 479.223999,380.186768 
	C479.338287,380.201965 479.618835,380.404633 479.985779,380.860809 
z"/>
<path fill="#730604" opacity="1.000000" stroke="none" 
	d="
M685.499268,404.928711 
	C685.580688,405.075714 685.433777,405.326630 685.125366,405.736328 
	C684.926880,405.563354 685.029236,405.275848 685.499268,404.928711 
z"/>
<path fill="#730604" opacity="1.000000" stroke="none" 
	d="
M684.719971,406.094421 
	C684.912231,406.200378 684.914185,406.396545 684.909668,406.886841 
	C684.778687,406.848846 684.654175,406.516754 684.719971,406.094421 
z"/>
<path fill="#DB0904" opacity="1.000000" stroke="none" 
	d="
M758.324097,428.962250 
	C758.236450,428.757080 758.435669,428.524780 758.860840,428.188660 
	C758.885071,428.331390 758.726501,428.614807 758.324097,428.962250 
z"/>
<path fill="#DB0904" opacity="1.000000" stroke="none" 
	d="
M757.521790,429.914001 
	C757.421936,429.754333 757.561096,429.539001 757.891724,429.216858 
	C758.045593,429.378448 757.938110,429.627838 757.521790,429.914001 
z"/>
<path fill="#CC0804" opacity="1.000000" stroke="none" 
	d="
M822.576233,472.006531 
	C822.640320,472.143921 822.489502,472.372589 822.210449,472.763763 
	C821.980347,472.585388 822.073364,472.309265 822.576233,472.006531 
z"/>
<path fill="#1E1439" opacity="1.000000" stroke="none" 
	d="
M481.726379,480.037415 
	C481.954468,480.052277 481.612915,480.121002 481.612915,480.121002 
	C481.612915,480.121002 481.266052,480.104675 481.153809,480.074219 
	C481.041595,480.043732 481.498291,480.022522 481.726379,480.037415 
z"/>
<path fill="#690606" opacity="1.000000" stroke="none" 
	d="
M525.489807,680.931641 
	C525.593323,681.089233 525.449646,681.384705 525.135254,681.872192 
	C525.088013,681.747620 525.180725,681.416016 525.489807,680.931641 
z"/>
<path fill="#A70704" opacity="1.000000" stroke="none" 
	d="
M808.680054,495.992798 
	C808.732727,496.161865 808.531555,496.380493 808.187317,496.768524 
	C808.168396,496.636444 808.295654,496.337952 808.680054,495.992798 
z"/>
<path fill="#2D0E25" opacity="1.000000" stroke="none" 
	d="
M482.855896,535.271545 
	C482.963745,535.241150 483.045166,535.472412 483.030090,535.853516 
	C483.013428,535.976440 482.909332,535.506287 482.855896,535.271545 
z"/>
<path fill="#380C1C" opacity="1.000000" stroke="none" 
	d="
M470.888672,580.745117 
	C470.791107,580.705994 470.579803,580.428284 470.221497,579.931396 
	C470.307983,579.976990 470.541473,580.241760 470.888672,580.745117 
z"/>
<path fill="#24102F" opacity="1.000000" stroke="none" 
	d="
M396.093933,595.327393 
	C396.225525,595.343811 396.438171,595.614075 396.794678,596.100708 
	C396.684021,596.071777 396.429535,595.826416 396.093933,595.327393 
z"/>
<path fill="#380C1C" opacity="1.000000" stroke="none" 
	d="
M404.077820,609.324097 
	C404.233582,609.283813 404.439209,609.480225 404.780823,609.842468 
	C404.581238,609.993225 404.318176,609.844055 404.077820,609.324097 
z"/>
<path fill="#56070B" opacity="1.000000" stroke="none" 
	d="
M432.026245,658.358215 
	C432.154114,658.338806 432.304504,658.512695 432.571716,658.809143 
	C432.386322,658.951355 432.173065,658.824646 432.026245,658.358215 
z"/>
<path fill="#690606" opacity="1.000000" stroke="none" 
	d="
M526.750366,679.059082 
	C526.823853,679.274170 526.602783,679.529968 526.196899,679.962280 
	C526.159973,679.792480 526.307922,679.446106 526.750366,679.059082 
z"/>
</svg>